<?xml version="1.0" encoding="UTF-8"?>
<svg version="1.1" xmlns="http://www.w3.org/2000/svg" width="708" height="599">
<path d="M0 0 C1.55185262 -0.0059953 3.10370227 -0.01280312 4.6555481 -0.02035522 C8.8459954 -0.03792372 13.03636087 -0.04270681 17.22684145 -0.0439868 C19.85324597 -0.04541452 22.47963009 -0.04969589 25.10602951 -0.05498123 C34.29270483 -0.07345349 43.47932235 -0.08165565 52.66601562 -0.08007812 C61.18997866 -0.07887852 69.71368776 -0.09995257 78.23758662 -0.13156545 C85.58745867 -0.15783952 92.93724838 -0.16844073 100.28716695 -0.16716731 C104.66279448 -0.1666608 109.03819622 -0.17216948 113.4137764 -0.19352341 C117.53603505 -0.21309383 121.65785693 -0.21290404 125.78013229 -0.19849014 C127.27955525 -0.19642378 128.77900693 -0.20097054 130.27838135 -0.21321106 C153.67780715 -0.391623 171.24217215 7.58699478 188.19677734 23.46240234 C188.84247177 24.0659404 189.4881662 24.66947845 190.15342712 25.29130554 C195.23678899 30.08278231 200.16832041 35.01134675 205.06005859 39.99755859 C205.79121384 40.74122177 206.52236908 41.48488495 207.27568054 42.25108337 C210.27308693 45.3025137 213.26895193 48.35506862 216.24536133 51.42700195 C229.73663971 65.32883983 244.4075137 79.40173608 264.98644304 80.4165352 C265.90097734 80.41702495 266.81551164 80.4175147 267.75775909 80.41801929 C268.81864951 80.42102694 269.87953992 80.42403459 270.97257853 80.42713338 C272.13199504 80.42538301 273.29141156 80.42363264 274.48596191 80.42182922 C275.7224616 80.42394494 276.95896129 80.42606065 278.23293066 80.42824048 C280.94676095 80.43216249 283.6605215 80.43425941 286.37434769 80.43327522 C290.7904983 80.43168066 295.20662633 80.43688857 299.62277222 80.44290161 C306.035853 80.45101196 312.44892981 80.45595763 318.86201477 80.45919228 C329.00629343 80.4646944 339.15053856 80.48159838 349.2947998 80.50053406 C352.76734156 80.50689082 356.2398834 80.51319929 359.71242523 80.51951122 C360.58028028 80.52109499 361.44813532 80.52267875 362.342289 80.5243105 C372.22054052 80.54224579 382.0987944 80.55847186 391.97705078 80.57348633 C393.3314148 80.57555014 393.3314148 80.57555014 394.71313971 80.57765564 C409.33132071 80.59956607 423.94949306 80.6103372 438.56768757 80.61785708 C453.5869422 80.62593915 468.60612284 80.64926584 483.62533522 80.68581074 C492.88227258 80.70779162 502.13905763 80.71751393 511.39601976 80.71131041 C517.74700876 80.70812629 524.09786808 80.71952858 530.44881696 80.74220482 C534.10818643 80.75482289 537.76726685 80.76110328 541.42664719 80.74978828 C545.40475913 80.73764655 549.38239501 80.75662985 553.36047363 80.77827454 C554.50204438 80.769832 555.64361512 80.76138946 556.81977892 80.75269109 C572.67407125 80.91142992 586.67406593 87.01953766 598.14208984 97.86865234 C608.33014814 108.64782665 613.52774267 120.8860049 613.56396484 135.70458984 C613.56667641 136.70005074 613.56667641 136.70005074 613.56944275 137.71562195 C613.57260296 140.48200817 613.57080054 143.24638548 613.51025391 146.01220703 C613.11642098 154.24896319 613.11642098 154.24896319 616.12280273 161.62231445 C618.14373602 163.35068554 620.22405524 164.81235028 622.43115234 166.29052734 C629.6455823 174.67745172 636.54060798 184.84936416 636.57096004 196.17755508 C636.57665129 197.41436657 636.58234253 198.65117806 636.58820623 199.92546868 C636.58949892 201.30547594 636.59068693 202.6854833 636.59178162 204.06549072 C636.59651169 205.52581981 636.60166248 206.98614759 636.60719925 208.44647384 C636.62112082 212.46969387 636.62869338 216.49290484 636.63517225 220.51614285 C636.64153946 223.96473257 636.65161026 227.4133074 636.6617329 230.86188784 C636.69507793 242.22765618 636.71658575 253.59343359 636.73493275 264.95923483 C636.73972778 267.91984337 636.74471113 270.88045154 636.74973798 273.84105968 C636.78071674 292.2305816 636.80739966 310.62010667 636.82415676 329.00964737 C636.82810622 333.27059179 636.83210921 337.53153616 636.83618164 341.79248047 C636.83719 342.85150817 636.83819836 343.91053586 636.83923728 345.00165531 C636.85622828 362.14063107 636.8973181 379.27946204 636.94820463 396.41836718 C637.00003633 414.0207373 637.02910664 431.6230331 637.03635365 449.22547889 C637.04100969 459.10593134 637.05569518 468.98614697 637.09609795 478.86652374 C637.13048253 487.28541761 637.14430339 495.70403192 637.13167381 504.12299195 C637.12586602 508.41461256 637.12957687 512.70564262 637.15984344 516.99717331 C637.18739318 520.9358654 637.1865688 524.87355266 637.16433299 528.81226894 C637.16113501 530.22766042 637.16783068 531.64312148 637.18613022 533.05839828 C637.40158214 550.81598553 629.88686577 565.60513599 617.80615234 578.47802734 C603.46904688 592.15545004 585.86559749 599.63351449 566.04673576 599.55058956 C565.04553876 599.55439523 564.04434176 599.5582009 563.01280546 599.5621219 C559.66700235 599.57240607 556.32136988 599.56853733 552.97555542 599.56468201 C550.54881886 599.56913612 548.12208375 599.57445073 545.69535077 599.58055073 C540.42365757 599.59176305 535.15201311 599.59676467 529.88031197 599.59622955 C522.04070146 599.59543468 514.20113443 599.60600301 506.36153557 599.61864512 C490.72767313 599.64335609 475.09382133 599.65216466 459.45994204 599.65718161 C458.24617262 599.65757337 458.24617262 599.65757337 457.0078826 599.65797305 C456.19704371 599.65823333 455.38620483 599.6584936 454.55079507 599.65876176 C445.55725981 599.66184654 436.56372748 599.66835214 427.57019424 599.67497444 C400.39701163 599.69461893 373.22383218 599.71102537 346.05064201 599.71385098 C345.18190098 599.71394504 344.31315994 599.7140391 343.41809341 599.71413601 C339.89760195 599.71451448 336.37711049 599.71487848 332.85661903 599.71523899 C330.2069843 599.71551071 327.55734957 599.71578738 324.90771484 599.71606445 C324.03217351 599.71615248 323.15663217 599.7162405 322.25455927 599.71633119 C294.74861337 599.71923621 267.24273776 599.74133028 239.73681641 599.77758789 C208.82129625 599.81833909 177.90582399 599.84200972 146.9902755 599.84231049 C143.69185201 599.84240731 140.39342852 599.84257403 137.09500504 599.8427906 C135.87680724 599.84285678 135.87680724 599.84285678 134.6339994 599.84292428 C121.58096096 599.8440428 108.52799312 599.86143191 95.4749774 599.88460992 C82.34930257 599.90748412 69.22372283 599.91165724 56.09803538 599.89706063 C48.30721459 599.88892663 40.51669392 599.89453783 32.72590971 599.92024147 C26.89839716 599.93791113 21.07111182 599.92924473 15.24359609 599.91059638 C12.89368993 599.90710696 10.5437525 599.91198801 8.19388734 599.92630082 C-14.89028191 600.05779145 -33.95511818 595.21649105 -51.08154297 578.98876953 C-66.01195481 564.13231639 -71.71637524 545.50384266 -71.84458098 524.90500776 C-71.85055487 522.17026524 -71.84685858 519.43562701 -71.84300232 516.70088196 C-71.84745911 514.70638602 -71.8527746 512.71189185 -71.85887104 510.71740025 C-71.87300822 505.25476746 -71.87471515 499.79219169 -71.87427413 494.32954323 C-71.87592609 488.43093136 -71.88899956 482.53234272 -71.90046692 476.63374329 C-71.92209882 464.41541317 -71.93071929 452.19710027 -71.93550192 439.97875328 C-71.9357631 439.31534275 -71.93602427 438.65193223 -71.93629336 437.96841836 C-71.93655364 437.30362176 -71.93681391 436.63882515 -71.93708207 435.9538832 C-71.94016922 428.57385436 -71.94667563 421.19382909 -71.95329475 413.81380272 C-71.97293586 391.5087988 -71.98934442 369.20379872 -71.99217129 346.89878559 C-71.99226535 346.1860109 -71.99235941 345.4732362 -71.99245632 344.73886227 C-71.99283478 341.85051603 -71.99319878 338.96216978 -71.9935593 336.07382353 C-71.99383102 333.90004577 -71.9941077 331.726268 -71.99438477 329.55249023 C-71.99447279 328.83419027 -71.99456081 328.1158903 -71.9946515 327.37582366 C-71.99755641 304.81065054 -72.01965144 282.24556311 -72.0559082 259.68041992 C-72.09667634 234.30711195 -72.12033016 208.93386238 -72.1206308 183.56051987 C-72.12072762 180.85245684 -72.12089433 178.14439382 -72.12111092 175.4363308 C-72.12115503 174.76957623 -72.12119914 174.10282167 -72.1212446 173.41586243 C-72.12229307 163.37081198 -72.1369722 153.32584271 -72.15862846 143.28081703 C-72.18316169 131.84907598 -72.19041187 120.41748554 -72.17538094 108.98572526 C-72.16822057 103.15686443 -72.16903241 97.32830091 -72.19179153 91.49947357 C-72.2124571 86.15549409 -72.20971029 80.81203908 -72.18891669 75.46806481 C-72.18543635 73.54281488 -72.19026949 71.61752652 -72.20462113 69.69232694 C-72.3198949 53.15281086 -69.92843561 38.82313311 -59.56884766 25.29052734 C-58.92302734 24.43974609 -58.27720703 23.58896484 -57.61181641 22.71240234 C-42.84087493 4.84476998 -22.2208965 -0.01724398 0 0 Z " fill="#1F9DFE" transform="translate(71.56884765625,-0.29052734375)"/>
<path d="M0 0 C1.55185262 -0.0059953 3.10370227 -0.01280312 4.6555481 -0.02035522 C8.8459954 -0.03792372 13.03636087 -0.04270681 17.22684145 -0.0439868 C19.85324597 -0.04541452 22.47963009 -0.04969589 25.10602951 -0.05498123 C34.29270483 -0.07345349 43.47932235 -0.08165565 52.66601562 -0.08007812 C61.18997866 -0.07887852 69.71368776 -0.09995257 78.23758662 -0.13156545 C85.58745867 -0.15783952 92.93724838 -0.16844073 100.28716695 -0.16716731 C104.66279448 -0.1666608 109.03819622 -0.17216948 113.4137764 -0.19352341 C117.53603505 -0.21309383 121.65785693 -0.21290404 125.78013229 -0.19849014 C127.27955525 -0.19642378 128.77900693 -0.20097054 130.27838135 -0.21321106 C153.67780715 -0.391623 171.24217215 7.58699478 188.19677734 23.46240234 C188.84247177 24.0659404 189.4881662 24.66947845 190.15342712 25.29130554 C195.23678899 30.08278231 200.16832041 35.01134675 205.06005859 39.99755859 C205.79121384 40.74122177 206.52236908 41.48488495 207.27568054 42.25108337 C210.27308693 45.3025137 213.26895193 48.35506862 216.24536133 51.42700195 C229.73663971 65.32883983 244.4075137 79.40173608 264.98644304 80.4165352 C265.90097734 80.41702495 266.81551164 80.4175147 267.75775909 80.41801929 C268.81864951 80.42102694 269.87953992 80.42403459 270.97257853 80.42713338 C272.13199504 80.42538301 273.29141156 80.42363264 274.48596191 80.42182922 C275.7224616 80.42394494 276.95896129 80.42606065 278.23293066 80.42824048 C280.94676095 80.43216249 283.6605215 80.43425941 286.37434769 80.43327522 C290.7904983 80.43168066 295.20662633 80.43688857 299.62277222 80.44290161 C306.035853 80.45101196 312.44892981 80.45595763 318.86201477 80.45919228 C329.00629343 80.4646944 339.15053856 80.48159838 349.2947998 80.50053406 C352.76734156 80.50689082 356.2398834 80.51319929 359.71242523 80.51951122 C360.58028028 80.52109499 361.44813532 80.52267875 362.342289 80.5243105 C372.22054052 80.54224579 382.0987944 80.55847186 391.97705078 80.57348633 C393.3314148 80.57555014 393.3314148 80.57555014 394.71313971 80.57765564 C409.33132071 80.59956607 423.94949306 80.6103372 438.56768757 80.61785708 C453.5869422 80.62593915 468.60612284 80.64926584 483.62533522 80.68581074 C492.88227258 80.70779162 502.13905763 80.71751393 511.39601976 80.71131041 C517.74700876 80.70812629 524.09786808 80.71952858 530.44881696 80.74220482 C534.10818643 80.75482289 537.76726685 80.76110328 541.42664719 80.74978828 C545.40475913 80.73764655 549.38239501 80.75662985 553.36047363 80.77827454 C554.50204438 80.769832 555.64361512 80.76138946 556.81977892 80.75269109 C572.67407125 80.91142992 586.67406593 87.01953766 598.14208984 97.86865234 C608.33014814 108.64782665 613.52774267 120.8860049 613.56396484 135.70458984 C613.56667641 136.70005074 613.56667641 136.70005074 613.56944275 137.71562195 C613.57260296 140.48200817 613.57080054 143.24638548 613.51025391 146.01220703 C613.11642098 154.24896319 613.11642098 154.24896319 616.12280273 161.62231445 C618.14373602 163.35068554 620.22405524 164.81235028 622.43115234 166.29052734 C629.6455823 174.67745172 636.54060798 184.84936416 636.57096004 196.17755508 C636.57665129 197.41436657 636.58234253 198.65117806 636.58820623 199.92546868 C636.58949892 201.30547594 636.59068693 202.6854833 636.59178162 204.06549072 C636.59651169 205.52581981 636.60166248 206.98614759 636.60719925 208.44647384 C636.62112082 212.46969387 636.62869338 216.49290484 636.63517225 220.51614285 C636.64153946 223.96473257 636.65161026 227.4133074 636.6617329 230.86188784 C636.69507793 242.22765618 636.71658575 253.59343359 636.73493275 264.95923483 C636.73972778 267.91984337 636.74471113 270.88045154 636.74973798 273.84105968 C636.78071674 292.2305816 636.80739966 310.62010667 636.82415676 329.00964737 C636.82810622 333.27059179 636.83210921 337.53153616 636.83618164 341.79248047 C636.83719 342.85150817 636.83819836 343.91053586 636.83923728 345.00165531 C636.85622828 362.14063107 636.8973181 379.27946204 636.94820463 396.41836718 C637.00003633 414.0207373 637.02910664 431.6230331 637.03635365 449.22547889 C637.04100969 459.10593134 637.05569518 468.98614697 637.09609795 478.86652374 C637.13048253 487.28541761 637.14430339 495.70403192 637.13167381 504.12299195 C637.12586602 508.41461256 637.12957687 512.70564262 637.15984344 516.99717331 C637.18739318 520.9358654 637.1865688 524.87355266 637.16433299 528.81226894 C637.16113501 530.22766042 637.16783068 531.64312148 637.18613022 533.05839828 C637.40158214 550.81598553 629.88686577 565.60513599 617.80615234 578.47802734 C603.46904688 592.15545004 585.86559749 599.63351449 566.04673576 599.55058956 C565.04553876 599.55439523 564.04434176 599.5582009 563.01280546 599.5621219 C559.66700235 599.57240607 556.32136988 599.56853733 552.97555542 599.56468201 C550.54881886 599.56913612 548.12208375 599.57445073 545.69535077 599.58055073 C540.42365757 599.59176305 535.15201311 599.59676467 529.88031197 599.59622955 C522.04070146 599.59543468 514.20113443 599.60600301 506.36153557 599.61864512 C490.72767313 599.64335609 475.09382133 599.65216466 459.45994204 599.65718161 C458.24617262 599.65757337 458.24617262 599.65757337 457.0078826 599.65797305 C456.19704371 599.65823333 455.38620483 599.6584936 454.55079507 599.65876176 C445.55725981 599.66184654 436.56372748 599.66835214 427.57019424 599.67497444 C400.39701163 599.69461893 373.22383218 599.71102537 346.05064201 599.71385098 C345.18190098 599.71394504 344.31315994 599.7140391 343.41809341 599.71413601 C339.89760195 599.71451448 336.37711049 599.71487848 332.85661903 599.71523899 C330.2069843 599.71551071 327.55734957 599.71578738 324.90771484 599.71606445 C324.03217351 599.71615248 323.15663217 599.7162405 322.25455927 599.71633119 C294.74861337 599.71923621 267.24273776 599.74133028 239.73681641 599.77758789 C208.82129625 599.81833909 177.90582399 599.84200972 146.9902755 599.84231049 C143.69185201 599.84240731 140.39342852 599.84257403 137.09500504 599.8427906 C135.87680724 599.84285678 135.87680724 599.84285678 134.6339994 599.84292428 C121.58096096 599.8440428 108.52799312 599.86143191 95.4749774 599.88460992 C82.34930257 599.90748412 69.22372283 599.91165724 56.09803538 599.89706063 C48.30721459 599.88892663 40.51669392 599.89453783 32.72590971 599.92024147 C26.89839716 599.93791113 21.07111182 599.92924473 15.24359609 599.91059638 C12.89368993 599.90710696 10.5437525 599.91198801 8.19388734 599.92630082 C-14.89028191 600.05779145 -33.95511818 595.21649105 -51.08154297 578.98876953 C-66.01195481 564.13231639 -71.71637524 545.50384266 -71.84458098 524.90500776 C-71.85055487 522.17026524 -71.84685858 519.43562701 -71.84300232 516.70088196 C-71.84745911 514.70638602 -71.8527746 512.71189185 -71.85887104 510.71740025 C-71.87300822 505.25476746 -71.87471515 499.79219169 -71.87427413 494.32954323 C-71.87592609 488.43093136 -71.88899956 482.53234272 -71.90046692 476.63374329 C-71.92209882 464.41541317 -71.93071929 452.19710027 -71.93550192 439.97875328 C-71.9357631 439.31534275 -71.93602427 438.65193223 -71.93629336 437.96841836 C-71.93655364 437.30362176 -71.93681391 436.63882515 -71.93708207 435.9538832 C-71.94016922 428.57385436 -71.94667563 421.19382909 -71.95329475 413.81380272 C-71.97293586 391.5087988 -71.98934442 369.20379872 -71.99217129 346.89878559 C-71.99226535 346.1860109 -71.99235941 345.4732362 -71.99245632 344.73886227 C-71.99283478 341.85051603 -71.99319878 338.96216978 -71.9935593 336.07382353 C-71.99383102 333.90004577 -71.9941077 331.726268 -71.99438477 329.55249023 C-71.99447279 328.83419027 -71.99456081 328.1158903 -71.9946515 327.37582366 C-71.99755641 304.81065054 -72.01965144 282.24556311 -72.0559082 259.68041992 C-72.09667634 234.30711195 -72.12033016 208.93386238 -72.1206308 183.56051987 C-72.12072762 180.85245684 -72.12089433 178.14439382 -72.12111092 175.4363308 C-72.12115503 174.76957623 -72.12119914 174.10282167 -72.1212446 173.41586243 C-72.12229307 163.37081198 -72.1369722 153.32584271 -72.15862846 143.28081703 C-72.18316169 131.84907598 -72.19041187 120.41748554 -72.17538094 108.98572526 C-72.16822057 103.15686443 -72.16903241 97.32830091 -72.19179153 91.49947357 C-72.2124571 86.15549409 -72.20971029 80.81203908 -72.18891669 75.46806481 C-72.18543635 73.54281488 -72.19026949 71.61752652 -72.20462113 69.69232694 C-72.3198949 53.15281086 -69.92843561 38.82313311 -59.56884766 25.29052734 C-58.92302734 24.43974609 -58.27720703 23.58896484 -57.61181641 22.71240234 C-42.84087493 4.84476998 -22.2208965 -0.01724398 0 0 Z M6.99365234 177.35302734 C6.27483887 177.74441895 5.55602539 178.13581055 4.81542969 178.5390625 C-18.0491471 191.33855823 -36.5850115 211.9321744 -44.13665867 237.26151371 C-45.78679586 243.43700615 -45.99142736 249.25408404 -45.95652771 255.61802673 C-45.96191325 256.81135591 -45.96729879 258.00468508 -45.97284752 259.23417574 C-45.98460345 262.51552423 -45.9830917 265.79654279 -45.97568071 269.07789361 C-45.97092438 272.62877032 -45.98348048 276.1795941 -45.99369812 279.73045349 C-46.01084302 286.67463964 -46.01173518 293.61873514 -46.00648522 300.56293695 C-46.00243449 306.20998753 -46.00389776 311.85701143 -46.00923347 317.50406075 C-46.0099819 318.30951116 -46.01073032 319.11496158 -46.01150142 319.94481959 C-46.01303298 321.58137794 -46.01457133 323.21793629 -46.01611639 324.85449464 C-46.02982566 340.18131165 -46.02441466 355.50807753 -46.01293118 370.83489335 C-46.00299885 384.83910091 -46.01594224 398.84317634 -46.03986537 412.84736352 C-46.06428037 427.24866148 -46.07385844 441.64989796 -46.06721264 456.05121619 C-46.06372596 464.12777491 -46.06591608 472.20423205 -46.08346367 480.28077507 C-46.09821567 487.1554872 -46.09878201 494.03002618 -46.08139276 500.90473502 C-46.07290521 504.40809251 -46.0706776 507.91114108 -46.08604431 511.41448212 C-46.09927322 515.22195874 -46.08768812 519.02860298 -46.0700531 522.83604431 C-46.07965811 523.9297438 -46.08926311 525.02344329 -46.09915918 526.15028518 C-45.97585891 539.144051 -41.35769173 550.49479853 -32.83056641 560.28662109 C-25.64559983 567.19465106 -14.48039068 573.41097148 -4.34534729 573.41817784 C-3.50323814 573.42119381 -2.66112899 573.42420978 -1.79350138 573.42731714 C-0.87153451 573.42554767 0.05043235 573.4237782 1.0003376 573.42195511 C1.98627887 573.42400774 2.97222014 573.42606038 3.98803842 573.42817521 C7.31797588 573.43386526 10.64787224 573.43238549 13.97781372 573.43096924 C16.37889811 573.43355173 18.77998208 573.43656456 21.18106544 573.43997264 C27.10482812 573.44721041 33.02858244 573.44974593 38.95234851 573.45030169 C46.04608855 573.45121489 53.13982024 573.45788112 60.2335567 573.46464852 C77.38024156 573.48071575 94.52692554 573.48661267 111.67361658 573.49139727 C119.78410377 573.49373254 127.89459025 573.49733512 136.00507688 573.50109264 C163.76433003 573.51392892 191.52358277 573.52464794 219.28283882 573.52809525 C221.02572898 573.52831688 222.76861914 573.52853866 224.51150929 573.5287606 C226.25862816 573.52898124 228.00574704 573.52920172 229.75286591 573.52942204 C233.25793274 573.5298646 236.76299957 573.53031171 240.26806641 573.53076172 C241.57164764 573.53092581 241.57164764 573.53092581 242.90156384 573.53109321 C271.08150061 573.53472394 299.26141165 573.55064422 327.44133856 573.57395208 C357.22980575 573.59854536 387.01825824 573.61226786 416.80673587 573.61346316 C420.07649859 573.61363462 423.3462613 573.61385005 426.61602402 573.6140976 C427.42114052 573.61415336 428.22625701 573.61420913 429.05577098 573.61426659 C442.01546182 573.61541749 454.97512627 573.62644286 467.9348082 573.64098465 C480.96027471 573.65534755 493.98570738 573.65858781 507.01117964 573.65054467 C514.74983743 573.6460874 522.48838602 573.64995291 530.22702948 573.66578318 C536.00531523 573.6766775 541.78350323 573.6718952 547.56178509 573.66101131 C549.89964911 573.65904736 552.23752402 573.66216477 554.57537271 573.67085567 C557.75274468 573.68192036 560.92956365 573.67447873 564.10692024 573.66246414 C565.01484011 573.67005934 565.92275997 573.67765453 566.85819256 573.68547988 C579.40418236 573.58304719 591.11384434 568.56157323 600.30615234 559.97802734 C610.42547801 548.92081296 612.88824275 537.06904286 612.8188324 522.4753418 C612.82301202 521.09615045 612.82849296 519.71696255 612.83515221 518.33778095 C612.84954298 514.57148555 612.84538222 510.80541015 612.8379854 507.03910303 C612.83324024 502.96813589 612.84577536 498.89721543 612.85600281 494.82626343 C612.873169 486.86058563 612.87403546 478.89498679 612.8687899 470.9292953 C612.86474341 464.45363869 612.86619745 457.97800536 612.87153816 451.50234985 C612.87228658 450.57962133 612.87303501 449.6568928 612.87380611 448.70620281 C612.87533763 446.83151745 612.87687598 444.95683211 612.87842108 443.08214676 C612.89213788 425.51590746 612.88671388 407.94971274 612.87523586 390.38347447 C612.86530126 374.32150332 612.87824954 358.25964733 612.90217005 342.19769394 C612.92656515 325.69235596 612.93616811 309.18707161 612.92951733 292.68171597 C612.92602642 283.42031441 612.92824888 274.15900143 612.94576836 264.89761353 C612.96049532 257.014924 612.96111916 249.13238546 612.94369745 241.24969888 C612.93518971 237.23016704 612.93303228 233.21090489 612.948349 229.19138718 C612.96221271 225.50751131 612.95741187 221.82413576 612.93810976 218.14028871 C612.93258392 216.18569805 612.94660712 214.23108181 612.96146387 212.2765398 C612.85944584 200.03975339 609.09648541 191.18569949 600.61865234 182.41552734 C590.59319325 173.03687206 579.23287802 169.96673873 565.79892254 170.03605175 C564.86690432 170.03284527 563.9348861 170.02963879 562.9746249 170.02633515 C559.85815735 170.01804779 556.74188261 170.02395508 553.62541199 170.02983093 C551.36580492 170.02680968 549.10619887 170.02292033 546.84659463 170.01823837 C540.64201609 170.00794629 534.43749525 170.01014329 528.23291194 170.01441896 C522.22711135 170.01663076 516.22132635 170.00947623 510.21553101 170.00265871 C496.41656795 169.98742511 482.61762325 169.98571299 468.81865355 169.98818173 C458.16202667 169.99001504 447.5054058 169.98825399 436.84877968 169.98395729 C435.31725051 169.98335489 433.78572134 169.98275369 432.25419218 169.98215369 C429.94626297 169.98124642 427.63833376 169.98033776 425.33040456 169.97942134 C403.87451385 169.97099269 382.4186254 169.96665549 360.96273327 169.97082806 C359.74966728 169.97106262 359.74966728 169.97106262 358.51209491 169.97130192 C354.41331889 169.97210769 350.31454288 169.97295347 346.21576687 169.97381523 C345.40175136 169.97398631 344.58773585 169.9741574 343.7490532 169.97433367 C342.10291637 169.97468033 340.45677953 169.97502886 338.8106427 169.97537926 C313.19804831 169.98073619 287.58548835 169.97280648 261.97290039 169.9543457 C233.19000934 169.93362411 204.40713962 169.9229033 175.6242407 169.92692119 C172.55448457 169.92731653 169.48472844 169.92767808 166.41497231 169.92801857 C165.65913342 169.9281093 164.90329454 169.92820003 164.12455144 169.92829351 C152.72042245 169.9294589 141.316315 169.92281567 129.91219139 169.91220665 C116.94028019 169.90015138 103.96841642 169.89859945 90.99650451 169.91099682 C84.37838511 169.91703895 77.76033837 169.91796699 71.14221954 169.90599442 C65.08175621 169.89515811 59.02146328 169.89821236 52.96100799 169.9122561 C50.77063394 169.91490921 48.58024663 169.91251727 46.38988557 169.90452024 C32.22563622 169.85640314 19.66590482 170.32802346 6.99365234 177.35302734 Z " fill="#3B3B3B" transform="translate(71.56884765625,-0.29052734375)"/>
<path d="M0 0 C1.29235062 -0.00571014 2.58470123 -0.01142029 3.91621399 -0.01730347 C5.34664907 -0.01854878 6.77708427 -0.01967389 8.20751953 -0.02069092 C9.71571473 -0.02532099 11.22390876 -0.0303459 12.73210144 -0.03573608 C16.82964662 -0.04884906 20.92717543 -0.05530359 25.02473831 -0.05974674 C27.58842437 -0.06268092 30.15210598 -0.06678651 32.71578979 -0.07125092 C40.7472656 -0.08492664 48.77873122 -0.09459136 56.81021786 -0.09845281 C66.06116512 -0.10292555 75.31196403 -0.12043662 84.56286621 -0.1494534 C91.72486163 -0.1711325 98.88681553 -0.1811605 106.04884338 -0.18249393 C110.32044176 -0.18353805 114.59190072 -0.18936107 118.86346436 -0.20731354 C122.88871292 -0.22390091 126.91371889 -0.22589853 130.93898964 -0.21717453 C132.40783657 -0.21640966 133.87669712 -0.2206733 135.34551048 -0.23063278 C153.73717485 -0.34791658 166.62942879 3.9109817 179.7265625 16.81988525 C182.78784965 19.90550745 185.81341006 23.02312033 188.81982422 26.16217041 C191.95747976 29.4368256 195.04999997 32.60528349 198.59033203 35.45294189 C200.97952021 37.40184709 202.94666549 39.49058669 204.93798828 41.84356689 C216.84527797 55.58479182 230.21301949 66.50776408 246.77783203 74.01544189 C247.37789063 74.29001221 247.97794922 74.56458252 248.59619141 74.84747314 C258.94002046 79.2570376 269.55545068 80.58678598 280.70767212 80.51225281 C282.56866612 80.51798965 282.56866612 80.51798965 284.46725595 80.52384239 C287.87150698 80.53145948 291.27525357 80.52588649 294.67946148 80.51454556 C298.36592458 80.50562376 302.05235301 80.51421561 305.73881531 80.52075195 C312.11522395 80.52987353 318.49156049 80.52860658 324.86796951 80.52056694 C334.09895964 80.50929474 343.32984791 80.51841205 352.56082921 80.53312875 C367.55633881 80.55685768 382.5518358 80.57025964 397.54736328 80.57427979 C398.89124229 80.57464709 398.89124229 80.57464709 400.26227038 80.57502181 C410.26100846 80.57756855 420.25974557 80.57813388 430.25848389 80.5770874 C433.88700358 80.57675434 437.51552327 80.57646896 441.14404297 80.57623291 C442.03946779 80.57617012 442.93489261 80.57610733 443.85745151 80.57604264 C458.8023577 80.57543728 473.74720563 80.59033809 488.69208753 80.61706597 C497.89737548 80.63284371 507.10247501 80.63515788 516.30776487 80.61993194 C522.61519722 80.6104509 528.92251613 80.61524703 535.22993518 80.63114577 C538.86482234 80.6398201 542.49940773 80.64202866 546.13427925 80.62661934 C550.08198672 80.61001767 554.02924695 80.62447082 557.97695923 80.64164734 C559.11500775 80.63184056 560.25305627 80.62203379 561.42559111 80.61192983 C572.74629218 80.71353362 581.35513869 83.74907946 589.54736328 91.62872314 C595.20844041 98.1874125 597.87999032 105.30914605 597.77783203 113.89044189 C597.76880859 114.87528564 597.75978516 115.86012939 597.75048828 116.87481689 C597.73308594 117.99630127 597.73308594 117.99630127 597.71533203 119.14044189 C592.97801965 120.35293458 588.37704138 120.27459463 583.52399731 120.25510979 C582.12456038 120.25549237 582.12456038 120.25549237 580.696852 120.25588268 C577.55310257 120.25552033 574.40941079 120.24797228 571.26567078 120.24050903 C568.99586907 120.23879766 566.72606699 120.23753503 564.45626479 120.23668396 C558.20477221 120.23308841 551.95330216 120.22327831 545.70181835 120.21253037 C539.65617537 120.20313865 533.61053013 120.19847419 527.56488212 120.19381565 C515.95158536 120.1847696 504.33829551 120.17227142 492.72500486 120.15739031 C474.28047979 120.1337891 455.83595654 120.11949413 437.39142022 120.10822367 C430.29346987 120.10385391 423.19551968 120.09921736 416.09756947 120.09462166 C414.91461588 120.09385887 414.91461588 120.09385887 413.70776425 120.09308066 C394.9309071 120.08094421 376.15405193 120.06658082 357.37719727 120.05108643 C356.55555068 120.05041126 355.73390409 120.0497361 354.88735911 120.04904048 C335.72781997 120.03325723 316.56828483 120.01534148 297.40875244 119.99273682 C296.58536454 119.99176555 295.76197665 119.99079427 294.9136376 119.98979357 C288.27713095 119.98194725 281.64062439 119.97402507 275.00411786 119.96608331 C247.62081018 119.93337375 220.23750972 119.91078105 192.85418441 119.89978893 C188.98383725 119.89822427 185.11349015 119.89652987 181.24314308 119.89474869 C180.48145529 119.89439992 179.71976749 119.89405115 178.93499825 119.89369181 C166.69344191 119.88776153 154.45192349 119.87097447 142.21038483 119.849907 C129.89627403 119.8289051 117.58219236 119.81869625 105.26806333 119.81945096 C98.60086242 119.81954832 91.93373953 119.81443837 85.26655579 119.79628372 C79.15639147 119.77974373 73.04638312 119.77720145 66.93620358 119.78553249 C64.73217494 119.786104 62.52813766 119.78163883 60.32413241 119.77147113 C45.15377244 119.70527422 30.61687375 120.45811964 16.21533203 125.76544189 C15.17687134 126.14176758 15.17687134 126.14176758 14.11743164 126.5256958 C2.14337315 131.06800086 -8.69300712 137.67051765 -18.28466797 146.14044189 C-19.14833984 146.88423096 -20.01201172 147.62802002 -20.90185547 148.39434814 C-25.797534 152.68714638 -30.19114987 157.07740635 -34.28466797 162.14044189 C-36.45164836 160.42051004 -37.22202051 159.54780888 -37.64936733 156.76897335 C-37.64442288 155.82606221 -37.63947844 154.88315107 -37.63438416 153.91166687 C-37.63587463 152.82815445 -37.63736511 151.74464203 -37.63890076 150.6282959 C-37.62504837 149.43919617 -37.61119598 148.25009644 -37.59692383 147.02496338 C-37.59403351 145.77262405 -37.59114319 144.52028473 -37.58816528 143.22999573 C-37.57656367 139.79131993 -37.55124719 136.35329897 -37.51864696 132.91479373 C-37.49310049 130.04009003 -37.47685624 127.16536438 -37.46058184 124.29059559 C-37.42196158 117.50073108 -37.36765711 110.71111515 -37.3034668 103.92144775 C-37.23766098 96.93417924 -37.19706278 89.94709363 -37.16926855 82.95957893 C-37.14452178 76.95078178 -37.10439774 70.94222016 -37.05206591 64.93360001 C-37.02097224 61.34954932 -36.99542312 57.76569054 -36.9844799 54.18151665 C-36.97140054 50.17449635 -36.92619559 46.16843608 -36.87817383 42.16168213 C-36.87849106 40.98675201 -36.87880829 39.8118219 -36.87913513 38.60128784 C-36.70449101 28.04269198 -33.83254999 18.86728785 -26.34716797 11.14044189 C-18.57915951 3.80398946 -10.70154424 0.0283279 0 0 Z " fill="#38FF56" transform="translate(62.28466796875,24.85955810546875)"/>
<path d="M0 0 C0 0.66 0 1.32 0 2 C1.27875 2.0825 2.5575 2.165 3.875 2.25 C9.24995225 2.84627046 14.24854122 4.39523054 19 7 C19.66 7.99 20.32 8.98 21 10 C23.55183404 11.20450304 23.55183404 11.20450304 26 12 C26 12.99 26 13.98 26 15 C27.65 15.66 29.3 16.32 31 17 C30.1875 19.4375 30.1875 19.4375 29 22 C28.01 22.33 27.02 22.66 26 23 C26 23.33 26 23.66 26 24 C22.04 24 18.08 24 14 24 C14 23.34 14 22.68 14 22 C13.01 22 12.02 22 11 22 C10.81824219 22.89460938 10.63648438 23.78921875 10.44921875 24.7109375 C7.91222713 36.9145177 4.74501101 47.03855692 -1.02978516 58.12402344 C-2.70149377 61.35638605 -4.31611087 64.61719341 -5.9375 67.875 C-6.95833333 69.91666667 -7.97916667 71.95833333 -9 74 C-9.66 74 -10.32 74 -11 74 C-11.25136719 74.70125 -11.50273437 75.4025 -11.76171875 76.125 C-13.15045457 79.34932038 -14.86464153 82.0800745 -16.8125 85 C-17.47894531 86.010625 -18.14539063 87.02125 -18.83203125 88.0625 C-21.00765074 91.01036641 -23.37227355 93.45548488 -26 96 C-26.556875 96.763125 -27.11375 97.52625 -27.6875 98.3125 C-28.120625 98.869375 -28.55375 99.42625 -29 100 C-29.66 100 -30.32 100 -31 100 C-31 100.66 -31 101.32 -31 102 C-31.66 102 -32.32 102 -33 102 C-33 102.66 -33 103.32 -33 104 C-33.66 104 -34.32 104 -35 104 C-35 104.66 -35 105.32 -35 106 C-39.35294118 110 -39.35294118 110 -43 110 C-43 110.66 -43 111.32 -43 112 C-45.01171875 113.62109375 -45.01171875 113.62109375 -47.6875 115.4375 C-48.55761719 116.03433594 -49.42773438 116.63117188 -50.32421875 117.24609375 C-57.57683742 122 -57.57683742 122 -60 122 C-60 122.66 -60 123.32 -60 124 C-60.83144531 124.41507812 -61.66289062 124.83015625 -62.51953125 125.2578125 C-64.91493274 126.45685747 -67.30816452 127.65955928 -69.69921875 128.8671875 C-85.08601854 136.62485093 -100.36935427 143.31351321 -117 148 C-118.175625 148.34160156 -119.35125 148.68320312 -120.5625 149.03515625 C-164.40669567 160.76569294 -212.95848581 155.65616329 -253.04931641 134.99951172 C-256.35307791 133.30669575 -259.67751674 131.6557103 -263 130 C-263 129.34 -263 128.68 -263 128 C-263.763125 127.71125 -264.52625 127.4225 -265.3125 127.125 C-268 126 -268 126 -271 124 C-271 123.34 -271 122.68 -271 122 C-271.85271484 121.63841797 -271.85271484 121.63841797 -272.72265625 121.26953125 C-275.44788908 119.75031912 -277.26690339 117.92581019 -279.4375 115.6875 C-280.22125 114.883125 -281.005 114.07875 -281.8125 113.25 C-282.534375 112.5075 -283.25625 111.765 -284 111 C-284.97716722 110.06041614 -285.95585268 109.12240221 -286.9375 108.1875 C-288.85323734 106.15565737 -289.77211885 104.4557623 -291 102 C-291.99 101.67 -292.98 101.34 -294 101 C-296.00850189 97.46503667 -297.54938389 93.79391905 -299 90 C-299.66 90 -300.32 90 -301 90 C-302.5078125 88.13671875 -302.5078125 88.13671875 -304.125 85.6875 C-304.66382813 84.88699219 -305.20265625 84.08648437 -305.7578125 83.26171875 C-307 81 -307 81 -307 78 C-307.66 78 -308.32 78 -309 78 C-309.268125 77.51273437 -309.53625 77.02546875 -309.8125 76.5234375 C-312.56866417 71.53695627 -315.36632406 66.57490477 -318.1875 61.625 C-318.53232422 61.01833496 -318.87714844 60.41166992 -319.23242188 59.78662109 C-320.74985723 57.12962446 -322.30175897 54.54736155 -324 52 C-325.94074861 52.27617533 -325.94074861 52.27617533 -328 53 C-328.66 53.99 -329.32 54.98 -330 56 C-332.1640625 56.29296875 -332.1640625 56.29296875 -334.625 56.1875 C-335.44226563 56.16042969 -336.25953125 56.13335937 -337.1015625 56.10546875 C-337.72804688 56.07066406 -338.35453125 56.03585937 -339 56 C-339 56.66 -339 57.32 -339 58 C-340.65 57.67 -342.3 57.34 -344 57 C-343.67 56.01 -343.34 55.02 -343 54 C-343.66 54 -344.32 54 -345 54 C-345 53.34 -345 52.68 -345 52 C-346.98 52.495 -346.98 52.495 -349 53 C-349 52.01 -349 51.02 -349 50 C-347.35 49.34 -345.7 48.68 -344 48 C-344 47.34 -344 46.68 -344 46 C-344.66 45.67 -345.32 45.34 -346 45 C-345.67 43.68 -345.34 42.36 -345 41 C-344.01 41 -343.02 41 -342 41 C-341.67 40.01 -341.34 39.02 -341 38 C-339.22265625 36.83203125 -339.22265625 36.83203125 -337.0625 35.8125 C-336.35222656 35.46832031 -335.64195312 35.12414062 -334.91015625 34.76953125 C-333 34 -333 34 -331 34 C-331 33.34 -331 32.68 -331 32 C-327.08782573 30.52741244 -323.17443824 29.05836326 -319.2578125 27.59765625 C-316.7645163 26.66667115 -314.28242828 25.71841012 -311.8046875 24.74609375 C-306.80610581 22.81644185 -302.29090829 21.54428971 -296.9375 21.15234375 C-294.82767087 21.03037103 -294.82767087 21.03037103 -292.125 20.375 C-290 20 -290 20 -287 21 C-287 21.99 -287 22.98 -287 24 C-286.34 24.33 -285.68 24.66 -285 25 C-284.375 28.0625 -284.375 28.0625 -284 31 C-289.48875507 34.23491845 -294.9795522 36.92959427 -300.93359375 39.203125 C-303.01756567 39.96901539 -303.01756567 39.96901539 -305 41 C-304.02446239 45.36122695 -302.10035917 49.08363798 -300 53 C-299.55011719 53.84304688 -299.10023438 54.68609375 -298.63671875 55.5546875 C-293.22512741 65.24989581 -286.64484537 74.12274171 -280 83 C-278.90751953 84.47146484 -278.90751953 84.47146484 -277.79296875 85.97265625 C-276.07876911 88.25215708 -276.07876911 88.25215708 -273 89 C-273 89.99 -273 90.98 -273 92 C-272.34 92 -271.68 92 -271 92 C-269.80997409 93.43224358 -268.6234666 94.86761602 -267.45849609 96.3203125 C-265.04855276 99.09574105 -262.21933331 101.26808844 -259.3125 103.5 C-258.69673096 103.97630859 -258.08096191 104.45261719 -257.4465332 104.94335938 C-245.42364451 114.29668062 -245.42364451 114.29668062 -231 118 C-231 118.66 -231 119.32 -231 120 C-229.68 120 -228.36 120 -227 120 C-227 120.66 -227 121.32 -227 122 C-226.02160156 122.18175781 -226.02160156 122.18175781 -225.0234375 122.3671875 C-224.14945312 122.53476562 -223.27546875 122.70234375 -222.375 122.875 C-221.51648438 123.03742188 -220.65796875 123.19984375 -219.7734375 123.3671875 C-217 124 -217 124 -214.17578125 124.97265625 C-210.41874481 126.18803212 -206.69807638 126.89670314 -202.8125 127.5625 C-202.12091797 127.68818359 -201.42933594 127.81386719 -200.71679688 127.94335938 C-189.31830598 129.93522741 -178.02253752 130.15932569 -166.48413086 130.13037109 C-163.93922998 130.12500365 -161.39450496 130.13034855 -158.84960938 130.13671875 C-129.54005215 130.15230379 -103.21358135 121.34703163 -77.25292969 108.10913086 C-75.41974299 107.17469449 -73.58490419 106.24355838 -71.75 105.3125 C-71.12609375 104.99216797 -70.5021875 104.67183594 -69.859375 104.34179688 C-65.22571295 102 -65.22571295 102 -63 102 C-63 101.34 -63 100.68 -63 100 C-61.35743484 98.9608862 -59.68511425 97.9685906 -58 97 C-49.08094386 90.45658031 -40.77725981 82.66825849 -34.3125 73.64453125 C-33.879375 73.10183594 -33.44625 72.55914062 -33 72 C-32.34 72 -31.68 72 -31 72 C-30.6596875 71.01 -30.6596875 71.01 -30.3125 70 C-29.18405503 67.42069721 -27.97098368 65.34011383 -26.4375 63 C-24.5131269 60.01156177 -23.33800332 57.60536879 -23 54 C-22.34 54 -21.68 54 -21 54 C-20.731875 52.948125 -20.46375 51.89625 -20.1875 50.8125 C-19.10293916 47.33048887 -17.86328842 45.08159239 -16 42 C-10.9257093 30.88291937 -10.9257093 30.88291937 -9 19 C-12.96 18.01 -12.96 18.01 -17 17 C-16.67 15.68 -16.34 14.36 -16 13 C-17.32 13 -18.64 13 -20 13 C-19.1875 10.0625 -19.1875 10.0625 -18 7 C-16.515 6.505 -16.515 6.505 -15 6 C-15.33 5.01 -15.66 4.02 -16 3 C-14.98679687 2.92652344 -14.98679687 2.92652344 -13.953125 2.8515625 C-13.06109375 2.77679688 -12.1690625 2.70203125 -11.25 2.625 C-9.92742187 2.52058594 -9.92742187 2.52058594 -8.578125 2.4140625 C-5.4633461 1.91381013 -3.09275786 0 0 0 Z " fill="#3BF854" transform="translate(514,346)"/>
<path d="M0 0 C0.99 0.33 1.98 0.66 3 1 C2.34 2.32 1.68 3.64 1 5 C3.475 4.505 3.475 4.505 6 4 C6 4.99 6 5.98 6 7 C6.61875 6.814375 7.2375 6.62875 7.875 6.4375 C10 6 10 6 12 7 C12 11 12 11 10 14 C9.34 14 8.68 14 8 14 C7.34 15.32 6.68 16.64 6 18 C5.34 18 4.68 18 4 18 C3.34 19.98 2.68 21.96 2 24 C1.34 24 0.68 24 0 24 C0 24.99 0 25.98 0 27 C-0.66 27 -1.32 27 -2 27 C-2.25652344 27.70898438 -2.51304687 28.41796875 -2.77734375 29.1484375 C-4.09697249 32.22616588 -5.71947814 34.83160987 -7.5625 37.625 C-9.43749947 40.47063329 -10.9209413 42.76282389 -12 46 C-12.66 46 -13.32 46 -14 46 C-14.37125 46.804375 -14.37125 46.804375 -14.75 47.625 C-16.30652537 50.5823982 -18.03435673 53.29724051 -20 56 C-20.66 56 -21.32 56 -22 56 C-23.52299523 58.93720508 -24.80100302 61.9168649 -26 65 C-25.5875 65.37125 -25.175 65.7425 -24.75 66.125 C-21.77238893 69.31529757 -19.59877233 73.04223832 -17.29296875 76.73046875 C-16.68066406 77.70628906 -16.06835938 78.68210937 -15.4375 79.6875 C-14.85871094 80.61949219 -14.27992188 81.55148437 -13.68359375 82.51171875 C-12.25332435 84.62559719 -10.87926124 86.29209996 -9 88 C-9.495 89.485 -9.495 89.485 -10 91 C-8.515 91.99 -8.515 91.99 -7 93 C-6.87625 93.763125 -6.7525 94.52625 -6.625 95.3125 C-5.77155739 98.98230322 -3.71879156 100.48511781 -1 103 C0.61227876 106.22455753 0.46900928 109.503749 0 113 C-1.09416098 115.81901736 -2.4537392 118.40449079 -4 121 C-5.98 120.505 -5.98 120.505 -8 120 C-8 119.34 -8 118.68 -8 118 C-8.9075 117.79375 -9.815 117.5875 -10.75 117.375 C-14.83306582 115.64754908 -15.67386861 113.7072719 -18 110 C-19.97956942 108.30911778 -21.97945196 106.64169528 -24 105 C-28 100.47368421 -28 100.47368421 -28 98 C-28.66 98 -29.32 98 -30 98 C-30 97.34 -30 96.68 -30 96 C-30.66 96 -31.32 96 -32 96 C-34.125 94.125 -34.125 94.125 -36 92 C-36 91.34 -36 90.68 -36 90 C-36.66 90 -37.32 90 -38 90 C-38 89.34 -38 88.68 -38 88 C-38.66 88 -39.32 88 -40 88 C-40 87.34 -40 86.68 -40 86 C-43.72614153 87.11854586 -43.72614153 87.11854586 -46 90 C-46.66 90 -47.32 90 -48 90 C-48 90.66 -48 91.32 -48 92 C-48.66 92 -49.32 92 -50 92 C-50.28875 92.763125 -50.5775 93.52625 -50.875 94.3125 C-52 97 -52 97 -54 100 C-54.66 100 -55.32 100 -56 100 C-56.23460937 100.69867188 -56.46921875 101.39734375 -56.7109375 102.1171875 C-58.23552207 105.52671299 -60.26184424 108.26859435 -62.625 111.125 C-63.06505371 111.65834961 -63.50510742 112.19169922 -63.95849609 112.74121094 C-67.64437684 116.9973199 -70.56867335 118.79303852 -76 120 C-76 120.66 -76 121.32 -76 122 C-77.32 122 -78.64 122 -80 122 C-80.66 121.01 -81.32 120.02 -82 119 C-84.97 119.495 -84.97 119.495 -88 120 C-88 119.34 -88 118.68 -88 118 C-88.66 117.67 -89.32 117.34 -90 117 C-89.73445312 116.40832031 -89.46890625 115.81664062 -89.1953125 115.20703125 C-88.66550781 114.02173828 -88.66550781 114.02173828 -88.125 112.8125 C-87.77695313 112.03519531 -87.42890625 111.25789063 -87.0703125 110.45703125 C-86.34944777 108.80219944 -85.66628853 107.13048884 -85.01953125 105.4453125 C-80.4892694 94.57962699 -71.09758493 84.59833938 -63.375 75.8125 C-60.85397289 73.17935999 -60.85397289 73.17935999 -60 70 C-59.34 69.67 -58.68 69.34 -58 69 C-58 68.34 -58 67.68 -58 67 C-59.52029885 65.50174677 -59.52029885 65.50174677 -61.5 63.9375 C-65.45968907 60.58266574 -68.85371894 56.9425411 -72.23828125 53.015625 C-74.27093076 50.69002157 -76.3801745 48.550956 -78.6875 46.5 C-80 45 -80 45 -80 42 C-80.66 42 -81.32 42 -82 42 C-86 36.58823529 -86 36.58823529 -86 34 C-86.66 34 -87.32 34 -88 34 C-88.66 32.02 -89.32 30.04 -90 28 C-90.66 28 -91.32 28 -92 28 C-92.33 26.68 -92.66 25.36 -93 24 C-92.01 24 -91.02 24 -90 24 C-90.66 22.35 -91.32 20.7 -92 19 C-90 18 -90 18 -86.875 18.9375 C-85.92625 19.288125 -84.9775 19.63875 -84 20 C-83.67 18.68 -83.34 17.36 -83 16 C-82.01 16.33 -81.02 16.66 -80 17 C-80.33 16.01 -80.66 15.02 -81 14 C-76.91968879 14.53962352 -74.86958113 16.67347178 -71.9375 19.4375 C-69.33875498 21.87211376 -66.96707461 24.02195026 -64 26 C-64 26.66 -64 27.32 -64 28 C-63.34 28 -62.68 28 -62 28 C-60.66666667 29.66666667 -59.33333333 31.33333333 -58 33 C-56.01739574 34.68732277 -54.0167658 36.35366057 -52 38 C-50.31237149 39.6454378 -48.6459651 41.31288577 -47 43 C-45.89714392 44.1054757 -44.79296036 45.20962854 -43.6875 46.3125 C-42.800625 47.199375 -41.91375 48.08625 -41 49 C-40.66226563 48.4946875 -40.32453125 47.989375 -39.9765625 47.46875 C-39.30753906 46.49421875 -39.30753906 46.49421875 -38.625 45.5 C-38.18414062 44.8503125 -37.74328125 44.200625 -37.2890625 43.53125 C-36.86367188 43.0259375 -36.43828125 42.520625 -36 42 C-35.34 42 -34.68 42 -34 42 C-33.731875 41.236875 -33.46375 40.47375 -33.1875 39.6875 C-32.00907376 37.02053536 -31.00851945 36.00851945 -29 34 C-27.95377125 32.02379014 -26.94560065 30.0262871 -26 28 C-25.34 28 -24.68 28 -24 28 C-23.71125 27.236875 -23.4225 26.47375 -23.125 25.6875 C-22 23 -22 23 -20 20 C-19.34 20 -18.68 20 -18 20 C-17.814375 19.154375 -17.62875 18.30875 -17.4375 17.4375 C-15.78725358 13.49125856 -13.75650337 11.47050628 -10.65625 8.61328125 C-8.78328893 6.90133387 -8.78328893 6.90133387 -7 4 C-5.68 4 -4.36 4 -3 4 C-2.34 3.67 -1.68 3.34 -1 3 C-0.67 2.01 -0.34 1.02 0 0 Z " fill="#39F954" transform="translate(311,224)"/>
<path d="M0 0 C2.97 0.495 2.97 0.495 6 1 C5.67 1.99 5.34 2.98 5 4 C5.66 4 6.32 4 7 4 C7 4.66 7 5.32 7 6 C7.66 6 8.32 6 9 6 C8.67 7.98 8.34 9.96 8 12 C7.34 12 6.68 12 6 12 C5.731875 13.093125 5.46375 14.18625 5.1875 15.3125 C4.03547849 18.88982994 3.57739387 19.62879764 1 22 C-0.04622875 23.97620986 -1.05439935 25.9737129 -2 28 C-2.66 28 -3.32 28 -4 28 C-4.66 29.32 -5.32 30.64 -6 32 C-6.66 32 -7.32 32 -8 32 C-8.226875 32.721875 -8.45375 33.44375 -8.6875 34.1875 C-10.29263523 37.6270755 -12.22102603 39.40226346 -15 42 C-16.38070733 43.348347 -17.75535072 44.70292167 -19.125 46.0625 C-19.78757812 46.71347656 -20.45015625 47.36445313 -21.1328125 48.03515625 C-23.05379942 49.96776649 -23.05379942 49.96776649 -24.6171875 52.24609375 C-25.07351563 52.82488281 -25.52984375 53.40367187 -26 54 C-26.66 54 -27.32 54 -28 54 C-28.4640625 54.928125 -28.4640625 54.928125 -28.9375 55.875 C-29.625 57.25 -30.3125 58.625 -31 60 C-29.515 60.495 -29.515 60.495 -28 61 C-24 65.45714286 -24 65.45714286 -24 68 C-23.34 68 -22.68 68 -22 68 C-19.10613437 71.57095598 -16.96793815 75.47312552 -15.875 79.9375 C-15.58625 80.948125 -15.2975 81.95875 -15 83 C-13.515 83.495 -13.515 83.495 -12 84 C-9.77292576 88.12008734 -9.77292576 88.12008734 -10.5 90.9375 C-11.2399038 93.98960317 -10.10571048 96.1381611 -9 99 C-12.73306793 99.95993175 -15.27413606 99.93146599 -19 99 C-19.928125 98.814375 -20.85625 98.62875 -21.8125 98.4375 C-22.534375 98.293125 -23.25625 98.14875 -24 98 C-24 97.01 -24 96.02 -24 95 C-24.5259375 94.78085937 -25.051875 94.56171875 -25.59375 94.3359375 C-28.90042857 92.50008674 -31.64801116 90.08249606 -34.5 87.625 C-35.06847656 87.14289063 -35.63695312 86.66078125 -36.22265625 86.1640625 C-38.6814737 84.06465456 -41.02752474 81.97162689 -43.28125 79.6484375 C-44.84365831 77.7692699 -44.84365831 77.7692699 -47 78 C-48.22805758 79.62196284 -49.38462511 81.29858067 -50.5 83 C-51.61537489 84.70141933 -52.77194242 86.37803716 -54 88 C-54.66 88 -55.32 88 -56 88 C-56 88.66 -56 89.32 -56 90 C-56.66 90 -57.32 90 -58 90 C-58.28875 90.5775 -58.5775 91.155 -58.875 91.75 C-59.91666667 93.83333333 -60.95833333 95.91666667 -62 98 C-62.66 98 -63.32 98 -64 98 C-64 98.66 -64 99.32 -64 100 C-64.66 100 -65.32 100 -66 100 C-66 100.66 -66 101.32 -66 102 C-66.66 102 -67.32 102 -68 102 C-68.2475 102.721875 -68.495 103.44375 -68.75 104.1875 C-71.27860045 109.876851 -74.30931302 112.5426579 -80 115 C-80 115.99 -80 116.98 -80 118 C-81.4800841 117.88637738 -82.95910074 117.75877092 -84.4375 117.625 C-85.26121094 117.55539062 -86.08492188 117.48578125 -86.93359375 117.4140625 C-87.61550781 117.27742188 -88.29742187 117.14078125 -89 117 C-89.33 116.34 -89.66 115.68 -90 115 C-90.99 115.99 -90.99 115.99 -92 117 C-94.625 117.125 -94.625 117.125 -97 117 C-97.33 116.34 -97.66 115.68 -98 115 C-98.66 115 -99.32 115 -100 115 C-99.57925683 110.09132973 -97.4784556 108.31666697 -94 105 C-93.278125 103.906875 -92.55625 102.81375 -91.8125 101.6875 C-91.214375 100.800625 -90.61625 99.91375 -90 99 C-89.34 99 -88.68 99 -88 99 C-88 98.01 -88 97.02 -88 96 C-86.39361431 94.27515781 -84.71450558 92.61741342 -83 91 C-81.23791033 89.11539818 -79.48786238 87.21946575 -77.75 85.3125 C-76.87859375 84.35988281 -76.0071875 83.40726562 -75.109375 82.42578125 C-72.99506137 80.1979846 -72.99506137 80.1979846 -72 78 C-71.34 78 -70.68 78 -70 78 C-70 77.34 -70 76.68 -70 76 C-69.34 76 -68.68 76 -68 76 C-67.938125 75.443125 -67.87625 74.88625 -67.8125 74.3125 C-66.67747594 71.08204692 -64.39558329 69.39558329 -62 67 C-61.65468062 63.98170556 -61.65468062 63.98170556 -63.57421875 62.3515625 C-64.27160156 61.78179687 -64.96898437 61.21203125 -65.6875 60.625 C-66.4196875 60.00882812 -67.151875 59.39265625 -67.90625 58.7578125 C-68.5971875 58.17773438 -69.288125 57.59765625 -70 57 C-73.83186843 53.43547122 -77.43861754 49.59958894 -80 45 C-80 44.01 -80 43.02 -80 42 C-80.66 42 -81.32 42 -82 42 C-82 41.34 -82 40.68 -82 40 C-82.66 40 -83.32 40 -84 40 C-88 34.70588235 -88 34.70588235 -88 31 C-86.68 30.67 -85.36 30.34 -84 30 C-84 29.34 -84 28.68 -84 28 C-84.66 28 -85.32 28 -86 28 C-85.67 26.68 -85.34 25.36 -85 24 C-85.99 24 -86.98 24 -88 24 C-88 23.34 -88 22.68 -88 22 C-87.34 22 -86.68 22 -86 22 C-86 21.01 -86 20.02 -86 19 C-84.68 19.33 -83.36 19.66 -82 20 C-82 19.34 -82 18.68 -82 18 C-81.01 18 -80.02 18 -79 18 C-78.67 17.34 -78.34 16.68 -78 16 C-75.125 16.75 -75.125 16.75 -72 18 C-71.33333333 19.33333333 -70.66666667 20.66666667 -70 22 C-69.071875 22.309375 -68.14375 22.61875 -67.1875 22.9375 C-63.31006319 24.22997894 -61.7264895 25.99387056 -59 29 C-57.35570171 30.68873879 -55.68615782 32.35305515 -54 34 C-53.05060547 34.94359375 -53.05060547 34.94359375 -52.08203125 35.90625 C-51.39496094 36.5559375 -50.70789063 37.205625 -50 37.875 C-49.360625 38.49117188 -48.72125 39.10734375 -48.0625 39.7421875 C-46.03241075 41.24132022 -46.03241075 41.24132022 -43.40234375 40.8984375 C-40.67988465 39.88028206 -40.01940102 39.20485153 -38.5625 36.75 C-36.13345025 33.02186985 -33.58993115 30.63261618 -30 28 C-29.34 28 -28.68 28 -28 28 C-27.34 26.68 -26.68 25.36 -26 24 C-25.34 24 -24.68 24 -24 24 C-23.74347656 23.40574219 -23.48695313 22.81148437 -23.22265625 22.19921875 C-21.88290435 19.78937747 -20.5626757 18.55128012 -18.4375 16.8125 C-14.33268436 13.36685183 -10.65586135 9.61922292 -6.98046875 5.72265625 C-5 4 -5 4 -2 4 C-1.34 2.68 -0.68 1.36 0 0 Z " fill="#3BF654" transform="translate(487,226)"/>
<path d="M0 0 C0 0.66 0 1.32 0 2 C0.66 2 1.32 2 2 2 C2 2.66 2 3.32 2 4 C2.66 4.33 3.32 4.66 4 5 C2.68 7.64 1.36 10.28 0 13 C-1.32 12.67 -2.64 12.34 -4 12 C-4 11.34 -4 10.68 -4 10 C-4.99 9.67 -5.98 9.34 -7 9 C-6.505 7.824375 -6.505 7.824375 -6 6.625 C-4.88133489 4.15667503 -4.88133489 4.15667503 -5 2 C-2 0 -2 0 0 0 Z " fill="#527525" transform="translate(307,332)"/>
<path d="M0 0 C1.32 0 2.64 0 4 0 C4 0.66 4 1.32 4 2 C3.34 2 2.68 2 2 2 C1.73445313 2.72574219 1.46890625 3.45148438 1.1953125 4.19921875 C-0.00072948 7.00170928 -1.40329107 9.30479352 -3.125 11.8125 C-3.93324219 12.99779297 -3.93324219 12.99779297 -4.7578125 14.20703125 C-5.16773438 14.79871094 -5.57765625 15.39039063 -6 16 C-6.99 15.67 -7.98 15.34 -9 15 C-9.99 15 -10.98 15 -12 15 C-11.34 14.01 -10.68 13.02 -10 12 C-9.36707617 9.88719655 -9.36707617 9.88719655 -9 8 C-8.67 8.66 -8.34 9.32 -8 10 C-7.401875 9.01 -6.80375 8.02 -6.1875 7 C-5.465625 6.01 -4.74375 5.02 -4 4 C-3.01 4 -2.02 4 -1 4 C-0.67 2.68 -0.34 1.36 0 0 Z " fill="#43C83A" transform="translate(501,418)"/>
<path d="M0 0 C0.99 0.33 1.98 0.66 3 1 C2.21718695 2.33855056 1.42348123 3.67073644 0.625 5 C0.18414062 5.7425 -0.25671875 6.485 -0.7109375 7.25 C-1.34902344 8.11625 -1.34902344 8.11625 -2 9 C-2.66 9 -3.32 9 -4 9 C-4.33644531 10.04220703 -4.33644531 10.04220703 -4.6796875 11.10546875 C-6.30163238 14.66127099 -8.5877421 17.38790161 -11.125 20.3125 C-11.82689453 21.13717773 -11.82689453 21.13717773 -12.54296875 21.97851562 C-13.68952483 23.32396409 -14.84397451 24.662679 -16 26 C-16 22.89448334 -15.4606285 21.64738916 -14 19 C-13.34 19 -12.68 19 -12 19 C-11.731875 18.46375 -11.46375 17.9275 -11.1875 17.375 C-10.795625 16.59125 -10.40375 15.8075 -10 15 C-9.608125 14.113125 -9.21625 13.22625 -8.8125 12.3125 C-6.3532079 7.81793168 -3.22059564 3.97059737 0 0 Z " fill="#B8DA30" transform="translate(259,315)"/>
<path d="M0 0 C2.97 0.495 2.97 0.495 6 1 C5.67 1.99 5.34 2.98 5 4 C5.66 4 6.32 4 7 4 C7 4.66 7 5.32 7 6 C7.66 6 8.32 6 9 6 C8.67 7.98 8.34 9.96 8 12 C7.34 12 6.68 12 6 12 C5.690625 11.360625 5.38125 10.72125 5.0625 10.0625 C4.1654837 8.06389179 4.1654837 8.06389179 3 7 C2.67 7.66 2.34 8.32 2 9 C1.34 8.67 0.68 8.34 0 8 C0.66 6.68 1.32 5.36 2 4 C1.01 5.485 1.01 5.485 0 7 C-0.66 7 -1.32 7 -2 7 C-2.33 6.01 -2.66 5.02 -3 4 C-1.5625 1.8125 -1.5625 1.8125 0 0 Z " fill="#4A9065" transform="translate(487,226)"/>
<path d="M0 0 C1 2 1 2 0.0625 5.125 C-0.288125 6.07375 -0.63875 7.0225 -1 8 C-2.65 8 -4.3 8 -6 8 C-6.33 7.34 -6.66 6.68 -7 6 C-7.66 6 -8.32 6 -9 6 C-8.67 4.35 -8.34 2.7 -8 1 C-6.35 1.33 -4.7 1.66 -3 2 C-3.66 3.32 -4.32 4.64 -5 6 C-1.9890638 3.9927092 -1.36983503 3.16115776 0 0 Z " fill="#50C051" transform="translate(396,335)"/>
<path d="M0 0 C0 0.66 0 1.32 0 2 C-1.423125 2.12375 -1.423125 2.12375 -2.875 2.25 C-6.09834868 2.63752715 -6.09834868 2.63752715 -7.25 5 C-7.4975 5.66 -7.745 6.32 -8 7 C-8.99 7.495 -8.99 7.495 -10 8 C-10 7.01 -10 6.02 -10 5 C-10.99 5.495 -10.99 5.495 -12 6 C-10.9200311 2.86809018 -9.99049526 1.99400788 -7.125 0.1875 C-4.02316031 -0.99119908 -2.9798555 -1.26070809 0 0 Z " fill="#508040" transform="translate(323,231)"/>
<path d="M0 0 C3.63515926 1.00976646 4.95669389 1.94643718 7.375 4.9375 C7.91125 5.948125 8.4475 6.95875 9 8 C8.67 8.99 8.34 9.98 8 11 C2.19794344 5.35475578 2.19794344 5.35475578 0 2 C0 1.34 0 0.68 0 0 Z " fill="#719727" transform="translate(302,321)"/>
<path d="M0 0 C0.99 0.33 1.98 0.66 3 1 C0.108948 6.38554376 -2.01930942 9.77462676 -8 12 C-6.59023295 8.96147295 -4.91129772 6.4060405 -2.875 3.75 C-2.06675781 2.69039063 -2.06675781 2.69039063 -1.2421875 1.609375 C-0.83226562 1.07828125 -0.42234375 0.5471875 0 0 Z " fill="#92BC23" transform="translate(259,315)"/>
<path d="M0 0 C1.65 0 3.3 0 5 0 C5 0.99 5 1.98 5 3 C4.01 3.66 3.02 4.32 2 5 C2 5.33 2 5.66 2 6 C-0.31 6 -2.62 6 -5 6 C-5.33 5.01 -5.66 4.02 -6 3 C-4.02 3 -2.04 3 0 3 C0 2.01 0 1.02 0 0 Z " fill="#3C8163" transform="translate(538,364)"/>
<path d="M0 0 C0.33 0.66 0.66 1.32 1 2 C-0.75 5 -0.75 5 -3 8 C-4.32 8 -5.64 8 -7 8 C-6.43628586 4.73045798 -5.50037734 3.17424117 -3 1 C-3 1.66 -3 2.32 -3 3 C-2.34 3 -1.68 3 -1 3 C-0.67 2.01 -0.34 1.02 0 0 Z " fill="#4C6716" transform="translate(244,334)"/>
<path d="M0 0 C2.96404505 2.80804268 5.44499019 5.18315774 7 9 C4.28902773 8.62607279 3.17999533 8.18642373 1.25 6.1875 C0 4 0 4 0 0 Z " fill="#7EAA2F" transform="translate(295,305)"/>
<path d="M0 0 C0.66 0 1.32 0 2 0 C2 0.66 2 1.32 2 2 C2.66 2 3.32 2 4 2 C4 2.66 4 3.32 4 4 C4.66 4.33 5.32 4.66 6 5 C5.67 5.66 5.34 6.32 5 7 C2.37812506 5.95125002 1.20628639 5.35068687 -0.25 2.875 C-0.4975 2.25625 -0.745 1.6375 -1 1 C-0.67 0.67 -0.34 0.34 0 0 Z " fill="#395A17" transform="translate(305,332)"/>
<path d="M0 0 C1.32 0 2.64 0 4 0 C4 0.66 4 1.32 4 2 C3.34 2 2.68 2 2 2 C1.5978125 3.2065625 1.5978125 3.2065625 1.1875 4.4375 C0.5996875 5.7059375 0.5996875 5.7059375 0 7 C-0.99 7.33 -1.98 7.66 -3 8 C-3 7.01 -3 6.02 -3 5 C-2.34 5 -1.68 5 -1 5 C-0.67 3.35 -0.34 1.7 0 0 Z " fill="#91C42B" transform="translate(501,418)"/>
<path d="M0 0 C2.79872437 2.52788007 4.45773019 4.20411134 5 8 C2.00675737 6.9024777 1.15389099 6.32317108 -0.25 3.375 C-0.4975 2.59125 -0.745 1.8075 -1 1 C-0.67 0.67 -0.34 0.34 0 0 Z " fill="#4A7737" transform="translate(465,296)"/>
<path d="M0 0 C4 1 4 1 6 3 C5.67 3.99 5.34 4.98 5 6 C4.34 5.67 3.68 5.34 3 5 C2.67 5.99 2.34 6.98 2 8 C1.34 5.36 0.68 2.72 0 0 Z " fill="#6EAE34" transform="translate(230,238)"/>
<path d="M0 0 C1.98 0.495 1.98 0.495 4 1 C3.67 2.98 3.34 4.96 3 7 C2.34 7 1.68 7 1 7 C-0.0625 5.1875 -0.0625 5.1875 -1 3 C-0.67 2.01 -0.34 1.02 0 0 Z " fill="#4A6D23" transform="translate(492,231)"/>
<path d="M0 0 C1.32 0 2.64 0 4 0 C4 0.66 4 1.32 4 2 C3.34 2 2.68 2 2 2 C2 2.66 2 3.32 2 4 C3.65 3.34 5.3 2.68 7 2 C7 2.66 7 3.32 7 4 C6.34 4 5.68 4 5 4 C5 4.66 5 5.32 5 6 C3.35 5.67 1.7 5.34 0 5 C0 3.35 0 1.7 0 0 Z " fill="#427F4D" transform="translate(170,398)"/>
<path d="M0 0 C0.66 0.33 1.32 0.66 2 1 C1.01 2.98 0.02 4.96 -1 7 C-1.99 7 -2.98 7 -4 7 C-4 6.34 -4 5.68 -4 5 C-4.66 4.67 -5.32 4.34 -6 4 C-4.7934375 3.566875 -4.7934375 3.566875 -3.5625 3.125 C-0.8673532 2.26737432 -0.8673532 2.26737432 0 0 Z " fill="#357260" transform="translate(227,337)"/>
<path d="M0 0 C0.66 0 1.32 0 2 0 C1.67 0.7425 1.34 1.485 1 2.25 C-0.22782871 5.13883312 -0.22782871 5.13883312 0 9 C-0.99 8.67 -1.98 8.34 -3 8 C-3.33 7.01 -3.66 6.02 -4 5 C-2.1875 2.3125 -2.1875 2.3125 0 0 Z " fill="#3A5E27" transform="translate(233,336)"/>
<path d="M0 0 C1 2 1 2 0.0625 5.125 C-0.288125 6.07375 -0.63875 7.0225 -1 8 C-2.32 7.67 -3.64 7.34 -5 7 C-4.54625 6.5875 -4.0925 6.175 -3.625 5.75 C-1.94049626 3.93591905 -1.00734029 2.24714373 0 0 Z " fill="#3F6A24" transform="translate(396,335)"/>
<path d="M0 0 C1.98 0.99 1.98 0.99 4 2 C4 2.66 4 3.32 4 4 C4.66 4.33 5.32 4.66 6 5 C4.68 5.33 3.36 5.66 2 6 C0 3 0 3 0 0 Z " fill="#59842F" transform="translate(467,320)"/>
<path d="M0 0 C0.99 0 1.98 0 3 0 C6 3.33333333 6 3.33333333 6 6 C4.125 5.8125 4.125 5.8125 2 5 C0.75 2.4375 0.75 2.4375 0 0 Z " fill="#9ACC2E" transform="translate(286,294)"/>
<path d="M0 0 C2.88437779 1.29299694 4.87219421 2.65941363 7 5 C6.67 5.99 6.34 6.98 6 8 C5.38125 7.195625 4.7625 6.39125 4.125 5.5625 C2.25835959 2.96125481 2.25835959 2.96125481 0 2 C0 1.34 0 0.68 0 0 Z " fill="#A3C82D" transform="translate(302,334)"/>
</svg>
